<svg xmlns="http://www.w3.org/2000/svg" xmlns:xlink="http://www.w3.org/1999/xlink" version="1.1" x="0px" y="0px" viewBox="0 0 100 100" style="enable-background:new 0 0 100 100;" xml:space="preserve"><g><g><path fill="#fff" d="M18.9,50.7c1.6-14.8,15.6-25,28.3-22c12.2,2.5,16.2,11.8,12.7,17l-7.1-6.8l-4.7,33.9l38.5-1.2l-6.9-6.7    C88.2,53.6,89,37,81.5,25.6C73.2,13.6,61,8.8,49.3,8C24.7,6,3.7,28.1,5.1,50.3c0.2,23.2,20.9,38.5,39.4,41    c19.2,3.4,39-4.1,50.5-18.4C69.5,100.6,14.9,83,18.9,50.7z"></path></g></g></svg>