<svg xmlns="http://www.w3.org/2000/svg" xmlns:xlink="http://www.w3.org/1999/xlink" xmlns:serif="http://www.serif.com/" viewBox="0 0 24 24" version="1.1" xml:space="preserve" style="" x="0px" y="0px" fill-rule="evenodd" clip-rule="evenodd" stroke-linejoin="round" stroke-miterlimit="2"><g><path fill="#fff" d="M10.567,8.097l-0.546,1.618c0,-0 -1.703,-0 -1.703,-0c-0.66,-0 -1.244,0.428 -1.442,1.057c-0.199,0.63 0.034,1.315 0.575,1.694l1.329,0.931l-0.519,1.54c-0.209,0.619 0.004,1.303 0.527,1.694c0.523,0.392 1.238,0.403 1.774,0.028c-0,0 1.438,-1.007 1.438,-1.007c0,-0 1.438,1.007 1.438,1.007c0.536,0.375 1.251,0.364 1.774,-0.028c0.523,-0.391 0.736,-1.075 0.527,-1.694l-0.519,-1.54l1.329,-0.931c0.541,-0.379 0.774,-1.064 0.575,-1.694c-0.198,-0.629 -0.782,-1.057 -1.442,-1.057c-0,-0 -1.703,-0 -1.703,-0c-0,-0 -0.546,-1.618 -0.546,-1.618c-0.207,-0.615 -0.784,-1.03 -1.433,-1.03c-0.649,0 -1.226,0.415 -1.433,1.03l-0,-0Zm0.704,2.607l0.717,-2.128c0.002,-0.005 0.007,-0.009 0.012,-0.009c0.005,0 0.01,0.004 0.012,0.009l0.717,2.128c0.103,0.305 0.389,0.511 0.711,0.511l2.242,-0c0.005,-0 0.01,0.003 0.012,0.008c0.001,0.006 -0,0.011 -0.005,0.014c0,0 -1.789,1.253 -1.789,1.253c-0.273,0.191 -0.387,0.539 -0.281,0.854l0.699,2.072c0.002,0.005 -0,0.011 -0.005,0.014c-0.004,0.003 -0.01,0.004 -0.014,0l-1.869,-1.308c-0.258,-0.181 -0.602,-0.181 -0.86,-0l-1.869,1.308c-0.004,0.004 -0.01,0.003 -0.014,0c-0.005,-0.003 -0.007,-0.009 -0.005,-0.014c0,0 0.699,-2.072 0.699,-2.072c0.106,-0.315 -0.008,-0.663 -0.281,-0.854l-1.789,-1.253c-0.005,-0.003 -0.006,-0.008 -0.005,-0.014c0.002,-0.005 0.007,-0.008 0.012,-0.008l2.242,-0c0.322,-0 0.608,-0.206 0.711,-0.511Z"></path><path fill="#fff"  d="M18.39,10.448l0.533,1.582c0.103,0.305 0.389,0.511 0.711,0.511l1.291,-0l-1.02,0.715c-0.273,0.19 -0.387,0.538 -0.281,0.853l0.405,1.201l-1.099,-0.77c-0.258,-0.18 -0.602,-0.18 -0.86,0c-0,0 -0.734,0.514 -1.472,1.031c-0.339,0.237 -0.421,0.705 -0.184,1.044c0.238,0.34 0.706,0.422 1.045,0.185l1.041,-0.73c0,0 1.041,0.73 1.041,0.73c0.478,0.334 1.117,0.324 1.584,-0.025c0.467,-0.35 0.657,-0.96 0.471,-1.513l-0.371,-1.1l0.949,-0.664c0.483,-0.339 0.691,-0.951 0.513,-1.513c-0.177,-0.562 -0.698,-0.944 -1.288,-0.944c0,-0 -1.226,-0 -1.226,-0c-0,-0 -0.393,-1.166 -0.393,-1.166c-0.185,-0.549 -0.7,-0.919 -1.28,-0.919c-0.414,0 -0.75,0.336 -0.75,0.75c-0,0.377 0.278,0.689 0.64,0.742Z"></path><path fill="#fff"  d="M3.971,15.31l0.405,-1.201c0.106,-0.315 -0.008,-0.663 -0.281,-0.853l-1.02,-0.715l1.291,-0c0.322,-0 0.608,-0.206 0.711,-0.511l0.533,-1.582c0.362,-0.053 0.64,-0.365 0.64,-0.742c0,-0.414 -0.336,-0.75 -0.75,-0.75c-0.58,0 -1.095,0.37 -1.28,0.919c0,0 -0.393,1.166 -0.393,1.166c0,-0 -1.226,-0 -1.226,-0c-0.59,-0 -1.111,0.382 -1.288,0.944c-0.178,0.562 0.03,1.174 0.513,1.513l0.949,0.664l-0.371,1.1c-0.186,0.553 0.004,1.163 0.471,1.513c0.467,0.349 1.106,0.359 1.584,0.025c-0,-0 1.041,-0.73 1.041,-0.73c0,0 1.041,0.73 1.041,0.73c0.339,0.237 0.807,0.155 1.045,-0.185c0.237,-0.339 0.155,-0.807 -0.184,-1.044c-0.738,-0.517 -1.472,-1.031 -1.472,-1.031c-0.258,-0.18 -0.602,-0.18 -0.86,0l-1.099,0.77Z"></path></g></svg>